# xmcd CD database file
#
# Track frame offsets:
#	150
#	16607
#	36027
#	53870
#	67820
#	87915
#	106812
#	125250
#	146345
#	157720
#
# Disc length: 2428 seconds
#
# Revision: 0
# Processed by: cddbd v1.5.2PL0 Copyright (c) Steve Scherf et al.
# Submitted via: CDex 1.70beta2
#
DISCID=69097a0a
DTITLE=Lessing, Thomas - Ko Tao
DYEAR=1993
DGENRE=Jazz
TTITLE0=Second Try
TTITLE1=A Little Teazy
TTITLE2=Rollins Licks
TTITLE3=Windy
TTITLE4=T.L.C.
TTITLE5=Kotao
TTITLE6=Laiballs
TTITLE7=Sunday
TTITLE8=Birthdaysuit
TTITLE9=Bighouses
EXTD=YEAR: 1993
EXTT0=
EXTT1=
EXTT2=
EXTT3=
EXTT4=
EXTT5=
EXTT6=
EXTT7=
EXTT8=
EXTT9=
PLAYORDER=
